<?xml version="1.0" encoding="utf-8"?>
<!-- Generator: Adobe Illustrator 24.3.0, SVG Export Plug-In . SVG Version: 6.00 Build 0)  -->
<svg version="1.1" id="layer" xmlns="http://www.w3.org/2000/svg" xmlns:xlink="http://www.w3.org/1999/xlink" x="0px" y="0px"
	 viewBox="0 0 512 512" style="enable-background:new 0 0 512 512;" xml:space="preserve">
<style type="text/css">
	.st0{display:none;fill:#0D1117;}
	.st1{fill:url(#svg_3_1_);}
	.st2{fill-rule:evenodd;clip-rule:evenodd;fill:url(#svg_4_1_);}
	.st3{fill:none;stroke:#000000;stroke-width:2.252;stroke-linecap:round;stroke-miterlimit:1.5013;}
	.st4{fill:#AD3A56;}
	.st5{fill:url(#SVGID_1_);}
	.st6{fill:#CD0031;fill-opacity:0.5;}
	.st7{fill:#CD0031;fill-opacity:0.4;}
	.st8{fill:#222222;}
	.st9{fill:#222222;filter:url(#Adobe_OpacityMaskFilter);}
	.st10{mask:url(#logo_svg__a_2_);}
</style>
<rect class="st0" width="512" height="512"/>
<g id="headlessui-logo">
	
		<linearGradient id="svg_3_1_" gradientUnits="userSpaceOnUse" x1="-1784.4849" y1="77.751" x2="-1781.9637" y2="99.8568" gradientTransform="matrix(20.7783 0 0 14.8053 37307.1094 -1104.9215)">
		<stop  offset="0" style="stop-color:#66E3FF"/>
		<stop  offset="1" style="stop-color:#7064F9"/>
	</linearGradient>
	<path id="svg_3" class="st1" d="M155.6,252.1l201.1-67c-4.1-24.8-7.2-42.3-10.3-54.7c-3.1-13.4-6.2-17.5-7.2-18.6
		c-4.1-4.1-8.3-8.3-14.4-10.3c-2.1-1-6.2-2.1-20.6-1c-15.5,1-35.1,4.1-66,9.3c-30.9,5.2-50.5,8.3-66,12.4
		c-12.4,2.1-15.5,4.1-17.5,6.2c-4.1,4.1-8.3,8.3-10.3,14.4c-1,2.1-2.1,6.2-1,20.6c1,15.5,4.1,35.1,9.3,66
		C153.5,236.7,154.6,244.9,155.6,252.1z"/>
	
		<linearGradient id="svg_4_1_" gradientUnits="userSpaceOnUse" x1="-1819.8699" y1="36.1093" x2="-1818.2327" y2="46.338" gradientTransform="matrix(31.9867 0 0 31.9949 58441.0508 -1110.0021)">
		<stop  offset="0" style="stop-color:#66E3FF"/>
		<stop  offset="1" style="stop-color:#7064F9"/>
	</linearGradient>
	<path id="svg_4" class="st2" d="M100.9,236.7c-10.3-60.8-14.4-90.8-4.1-115.5c5.2-12.4,13.4-23.7,23.7-33
		c19.6-17.5,49.5-21.7,110.4-30.9s90.8-14.4,114.5-4.1c13.4,5.2,24.8,13.4,34,23.7c17.5,19.6,21.7,50.5,32,110.4
		c9.3,60.8,14.4,90.8,4.1,114.5c-5.2,12.4-13.4,23.7-23.7,33c-19.6,17.5-50.5,21.7-110.4,32c-60.8,9.3-90.8,14.4-114.5,4.1
		c-14.4-5.2-25.8-13.4-35.1-23.7C114.3,327.4,110.2,296.5,100.9,236.7L100.9,236.7z M207.2,343.9c16.5-1,37.1-4.1,68.1-9.3
		c30.9-5.2,51.6-8.3,67-12.4s22.7-8.3,26.8-11.3c6.2-6.2,12.4-13.4,15.5-21.7c2.1-5.2,4.1-13.4,3.1-28.9c-1-16.5-4.1-37.1-9.3-68.1
		c-5.2-30.9-8.3-51.6-12.4-67c-4.1-15.5-7.2-22.7-11.3-26.8c-6.2-6.2-13.4-12.4-21.7-15.5c-5.2-2.1-13.4-4.1-28.9-3.1
		c-16.5,1-37.1,4.1-68.1,9.3c-30.9,5.2-51.6,8.3-67,12.4s-22.7,7.2-26.8,11.3c-7.2,6.2-12.4,13.4-15.5,21.7
		c-2.1,5.2-4.1,13.4-3.1,28.9c1,16.5,4.1,37.1,9.3,68.1c5.2,30.9,8.3,51.6,12.4,67c4.1,15.5,7.2,22.7,11.3,26.8
		c6.2,6.2,13.4,12.4,21.7,15.5C183.4,342.9,191.7,345,207.2,343.9L207.2,343.9z"/>
</g>
<g id="floatingui-logo">
	<path class="st3" d="M383.9,438.7c-0.7,8.6-0.3,28.5,6.6,38.9c8.6,13,10,18.4,10,23.5"/>
	<path class="st4" d="M382.3,431.9c0.6-1.1,2.2-1.1,2.8,0l4.2,7.3c0.6,1.1-0.2,2.4-1.4,2.4h-8.5c-1.3,0-2-1.4-1.4-2.4L382.3,431.9z"
		/>
	
		<radialGradient id="SVGID_1_" cx="-938.093" cy="513.6873" r="1.4462" gradientTransform="matrix(114.4486 -68.3673 -59.6403 -99.8394 138308.3281 -12496.835)" gradientUnits="userSpaceOnUse">
		<stop  offset="0" style="stop-color:#FF3767"/>
		<stop  offset="0.807" style="stop-color:#F36D76"/>
		<stop  offset="1" style="stop-color:#FFE1DA"/>
	</radialGradient>
	<path class="st5" d="M488.7,310.1c-2.7,59.1-52.4,114.6-104.5,124.8c-52.4-9.6-94.9-67.4-97.7-126.6c0-64,51.7-108.5,104.5-108.5
		C443.8,199.9,491.7,246,488.7,310.1z"/>
	<circle class="st6" cx="338.4" cy="326.6" r="17.1"/>
	<circle class="st7" cx="431.7" cy="326.6" r="17.1"/>
	<ellipse class="st8" cx="416.5" cy="312.3" rx="9" ry="8.7"/>
	<ellipse class="st8" cx="353.6" cy="312.3" rx="9" ry="8.7"/>
	<defs>
		<filter id="Adobe_OpacityMaskFilter" filterUnits="userSpaceOnUse" x="370.1" y="309.4" width="30.8" height="30.8">
			<feColorMatrix  type="matrix" values="1 0 0 0 0  0 1 0 0 0  0 0 1 0 0  0 0 0 1 0"/>
		</filter>
	</defs>
	<mask maskUnits="userSpaceOnUse" x="370.1" y="309.4" width="30.8" height="30.8" id="logo_svg__a_2_">
		<path class="st9" d="M286.5,199.9"/>
	</mask>
	<g class="st10">
		<path class="st8" d="M400.9,324.8c0,8.5-6.9,15.4-15.4,15.4s-15.4-6.9-15.4-15.4s6.9-15.4,15.4-15.4S400.9,316.3,400.9,324.8z"/>
	</g>
</g>
</svg>
